<svg xmlns="http://www.w3.org/2000/svg" width="52" height="50" viewBox="0 0 52 50">
    <g transform="translate(0 -.638)">
        <circle data-name="타원 41" cx="4" cy="4" r="4" transform="translate(21 42.638)" style="fill:#2b90d9"/>
        <circle data-name="타원 42" cx="4" cy="4" r="4" transform="translate(33 38.638)" style="fill:#45a2e6"/>
        <circle data-name="타원 43" cx="4" cy="4" r="4" transform="translate(41 30.917)" style="fill:#51abed"/>
        <circle data-name="타원 44" cx="3.5" cy="3.5" r="3.5" transform="translate(45 20.184)" style="fill:#5aafed"/>
        <ellipse data-name="타원 45" cx="3" cy="3.5" rx="3" ry="3.5" transform="translate(42 9.434)" style="fill:#60b1eb"/>
        <circle data-name="타원 46" cx="3" cy="3" r="3" transform="translate(33 2.638)" style="fill:#65b2eb"/>
        <ellipse data-name="타원 47" cx="3" cy="2.5" rx="3" ry="2.5" transform="translate(22 .638)" style="fill:#6ab2e6"/>
        <ellipse data-name="타원 48" cx="2.5" cy="3" rx="2.5" ry="3" transform="translate(11 3.638)" style="fill:#7bbded"/>
        <ellipse data-name="타원 49" cx="2.5" cy="2" rx="2.5" ry="2" transform="translate(3 12.383)" style="fill:#8ac7f2"/>
        <circle data-name="타원 50" cx="2" cy="2" r="2" transform="translate(0 22.17)" style="fill:#98cef5"/>
        <ellipse data-name="타원 51" cx="1.5" cy="2" rx="1.5" ry="2" transform="translate(4 32.936)" style="fill:#a2d5fa"/>
        <circle data-name="타원 52" cx="1.5" cy="1.5" r="1.5" transform="translate(11 41.638)" style="fill:#b6dffc"/>
    </g>
</svg>
